<svg width="54" height="44" viewBox="0 0 54 44" fill="none" xmlns="http://www.w3.org/2000/svg">
<g clip-path="url(#clip0)">
<path d="M15.2181 34.254L6.8722 20.1244L20.2436 10.611L31.7442 13.0555L18.3193 22.5576L26.7187 36.6985L15.2181 34.254Z" fill="url(#paint0_linear)"/>
<path d="M44.2261 13.1928C42.6213 12.8517 41.4004 12.1076 40.5634 10.9607C39.7695 9.78558 39.5204 8.50266 39.816 7.1119C40.1192 5.68547 40.8686 4.61479 42.0642 3.89985C43.303 3.15683 44.7248 2.95586 46.3295 3.29696C47.8986 3.63047 49.08 4.38477 49.8739 5.55984C50.7109 6.70684 50.9779 7.99355 50.6747 9.41998C50.3791 10.8107 49.6118 11.8776 48.373 12.6207C47.1775 13.3356 45.7951 13.5263 44.2261 13.1928ZM48.1133 17.2617L41.769 47.1097L32.622 45.1654L38.9664 15.3175L48.1133 17.2617Z" fill="url(#paint1_linear)"/>
</g>
<defs>
<linearGradient id="paint0_linear" x1="-2.26113" y1="-10.3298" x2="60.7977" y2="51.1544" gradientUnits="userSpaceOnUse">
<stop stop-color="#5433FF"/>
<stop offset="0.5" stop-color="#20BDFF"/>
<stop offset="1" stop-color="#A5FECB"/>
</linearGradient>
<linearGradient id="paint1_linear" x1="-2.26113" y1="-10.3298" x2="60.7977" y2="51.1544" gradientUnits="userSpaceOnUse">
<stop stop-color="#5433FF"/>
<stop offset="0.5" stop-color="#20BDFF"/>
<stop offset="1" stop-color="#A5FECB"/>
</linearGradient>
<clipPath id="clip0">
<rect width="53.87" height="43.61" fill="white"/>
</clipPath>
</defs>
</svg>
